<?xml version="1.0" standalone="no"?>
<!DOCTYPE svg PUBLIC "-//W3C//DTD SVG 20010904//EN"
 "http://www.w3.org/TR/2001/REC-SVG-20010904/DTD/svg10.dtd">
<svg version="1.0" xmlns="http://www.w3.org/2000/svg"
 width="512.000000pt" height="512.000000pt" viewBox="0 0 512.000000 512.000000"
 preserveAspectRatio="xMidYMid meet">
<metadata>
Created by potrace 1.11, written by Peter Selinger 2001-2013
</metadata>
<g transform="translate(0.000000,512.000000) scale(0.100000,-0.100000)"
fill="#000000" stroke="none">
<path d="M2475 4911 c-22 -10 -69 -42 -105 -71 -190 -155 -396 -258 -639 -319
-155 -39 -293 -57 -538 -71 -248 -14 -306 -34 -333 -114 -21 -66 -52 -533 -57
-879 -6 -378 1 -515 43 -802 82 -573 302 -1088 654 -1535 190 -240 557 -576
856 -784 142 -98 191 -113 269 -77 67 30 286 187 405 291 36 31 92 77 125 102
68 52 324 308 412 413 245 291 405 581 558 1011 83 231 141 512 170 808 17
183 20 702 5 916 -5 74 -14 218 -20 318 -11 190 -21 236 -62 279 -45 48 -82
53 -403 57 l-300 4 -80 31 c-44 17 -114 41 -155 52 -135 38 -352 155 -508 273
-160 121 -210 137 -297 97z m183 -463 c34 -21 42 -38 17 -38 -10 0 -15 -10
-15 -30 0 -35 -10 -38 -34 -11 -14 15 -23 17 -48 11 -26 -8 -29 -7 -22 8 10
22 9 52 -1 75 -7 17 -4 18 31 11 22 -3 54 -15 72 -26z m-188 -1868 c0 -1034
-2 -1880 -6 -1880 -8 0 -145 104 -182 138 l-32 31 2 1732 3 1732 65 35 c36 19
81 48 100 63 19 16 38 29 42 29 5 0 8 -846 8 -1880z m330 1715 c0 -20 8 -29
33 -40 l32 -14 -32 -13 c-26 -10 -33 -18 -33 -40 0 -33 -13 -36 -33 -8 -11 16
-19 18 -45 10 -36 -10 -39 -4 -17 28 14 19 14 24 -2 48 l-17 27 32 -5 c23 -3
37 1 49 14 22 25 33 23 33 -7z m279 -47 c41 -17 49 -23 37 -30 -9 -5 -16 -21
-16 -35 l0 -26 -22 20 c-17 16 -32 19 -57 16 l-33 -6 16 25 c9 14 14 33 10 42
-8 21 3 20 65 -6z m-1039 -1595 l0 -1587 -56 54 c-31 30 -83 85 -115 123 l-59
68 0 1434 0 1434 38 6 c20 3 69 16 107 29 39 13 73 24 78 25 4 0 7 -713 7
-1586z m646 1431 c31 -8 30 -22 -1 -30 -19 -5 -25 -13 -25 -35 0 -34 -10 -37
-34 -10 -14 15 -23 17 -48 11 -26 -8 -29 -7 -22 8 10 22 9 52 -1 76 -7 16 -5
17 22 12 23 -5 34 -2 49 15 l19 21 9 -31 c6 -20 17 -33 32 -37z m274 36 c0
-23 5 -31 25 -36 14 -3 25 -9 25 -13 0 -4 -11 -13 -25 -19 -17 -8 -25 -20 -25
-37 0 -29 -12 -32 -31 -9 -9 11 -23 14 -46 11 -37 -6 -40 -1 -18 29 12 19 12
24 0 40 -22 28 -18 36 13 29 21 -4 33 -1 47 15 25 28 35 25 35 -10z m300 2 c0
-22 7 -30 33 -40 l32 -13 -32 -14 c-28 -12 -33 -19 -33 -46 l0 -32 -25 23
c-18 17 -31 21 -55 17 -35 -7 -36 -5 -14 28 14 22 14 26 -2 50 l-17 27 35 -7
c30 -6 38 -4 47 14 16 29 31 26 31 -7z m300 -2 c0 -12 13 -26 33 -36 l32 -17
-32 -14 c-25 -10 -33 -19 -33 -38 0 -29 -12 -32 -31 -9 -9 11 -23 14 -46 11
l-33 -6 16 29 c16 27 16 30 0 55 l-17 26 34 -6 c24 -5 37 -2 46 9 18 22 31 20
31 -4z m-1980 -1241 c0 -1018 -2 -1240 -13 -1231 -7 6 -30 46 -51 89 -20 43
-42 85 -47 93 -13 22 -52 104 -88 186 l-31 71 0 1005 0 1005 83 10 c45 6 97
11 115 12 l32 1 0 -1241z m2301 1214 c45 -21 48 -30 15 -39 -18 -4 -26 -15
-31 -41 -6 -35 -6 -35 -22 -13 -12 17 -23 21 -49 18 -19 -2 -34 -3 -34 -1 0 1
5 13 11 26 8 18 8 30 0 46 -11 20 -9 21 30 21 24 0 60 -8 80 -17z m-1081 -158
c0 -20 8 -29 33 -40 l32 -14 -32 -13 c-26 -10 -33 -18 -33 -40 0 -32 -15 -37
-30 -9 -8 16 -17 19 -47 14 l-37 -6 17 26 c17 26 17 28 0 54 l-18 26 32 -6
c23 -5 35 -1 48 13 24 27 35 25 35 -5z m300 0 c0 -20 8 -29 32 -39 l32 -14
-32 -16 c-24 -12 -32 -23 -32 -43 l0 -26 -22 20 c-17 16 -32 19 -57 16 l-33
-6 17 27 c16 25 16 27 0 53 l-17 26 36 -6 c29 -5 38 -2 46 14 15 27 30 24 30
-6z m300 -1 c0 -19 7 -28 30 -35 37 -13 38 -25 5 -33 -18 -5 -27 -15 -32 -37
l-6 -30 -21 20 c-14 13 -29 18 -48 14 -31 -6 -34 -2 -16 26 9 15 8 24 -6 47
l-18 27 36 -6 c29 -5 39 -2 49 14 16 26 27 24 27 -7z m310 -15 c0 -10 11 -20
25 -23 14 -4 25 -10 25 -15 0 -5 -11 -12 -25 -15 -20 -5 -25 -13 -25 -36 0
-35 -10 -38 -35 -10 -13 14 -25 17 -47 13 -28 -6 -29 -5 -16 21 9 21 9 32 0
47 -18 28 -15 32 17 26 21 -5 34 -1 47 14 19 21 34 11 34 -22z m-1020 -214
l25 -13 -28 -13 c-20 -9 -27 -19 -27 -41 0 -33 -10 -35 -35 -8 -14 16 -26 19
-47 15 -31 -7 -34 -4 -16 25 10 16 10 24 0 40 -19 31 -15 36 22 32 28 -3 37 0
47 19 l12 24 12 -34 c6 -18 22 -39 35 -46z m270 39 c0 -18 8 -27 32 -37 l32
-13 -32 -13 c-26 -11 -32 -19 -32 -42 0 -34 -15 -38 -31 -8 -9 17 -17 20 -45
14 -37 -6 -41 0 -19 29 12 16 12 21 0 40 -21 29 -19 32 19 28 27 -3 38 1 47
16 16 25 29 19 29 -14z m334 -38 l30 -12 -32 -13 c-26 -11 -32 -19 -32 -44 l0
-30 -23 21 c-19 18 -30 21 -58 15 l-34 -6 18 27 c17 25 17 29 3 51 -21 32 -21
32 17 27 24 -3 38 2 52 18 l20 22 5 -32 c4 -24 13 -35 34 -44z m299 2 l31 -15
-29 -14 c-20 -9 -32 -24 -35 -43 l-5 -28 -19 21 c-16 17 -26 20 -54 15 l-34
-7 17 27 c16 24 16 28 1 51 -22 33 -21 35 17 28 25 -4 37 0 52 17 l20 22 3
-29 c2 -22 11 -34 35 -45z m305 -2 l27 -14 -26 -10 c-18 -7 -28 -20 -33 -43
l-6 -32 -24 22 c-17 16 -30 20 -50 15 -30 -7 -31 -5 -14 31 9 19 9 28 0 37
-22 22 -13 35 19 30 24 -3 34 1 47 19 l16 23 8 -32 c5 -19 19 -37 36 -46z
m-1098 -131 c0 -20 8 -29 33 -40 l32 -14 -32 -13 c-26 -10 -33 -18 -33 -40 0
-32 -15 -36 -32 -9 -9 15 -19 18 -47 13 l-35 -5 17 26 c17 26 17 28 0 54 l-18
26 32 -6 c23 -5 35 -1 48 13 24 27 35 25 35 -5z m300 0 c0 -20 8 -29 32 -39
l32 -14 -32 -16 c-24 -12 -32 -23 -32 -43 l0 -26 -22 20 c-17 16 -32 19 -57
16 l-33 -6 17 27 c16 25 16 27 0 53 l-17 26 34 -6 c27 -4 37 -1 46 14 17 27
32 24 32 -6z m300 -1 c0 -19 7 -28 30 -35 37 -13 38 -25 5 -33 -18 -5 -27 -15
-32 -37 l-6 -30 -21 20 c-14 13 -29 18 -48 14 -31 -6 -34 -2 -16 26 9 15 8 24
-6 47 l-18 27 36 -6 c29 -5 39 -2 49 14 16 26 27 24 27 -7z m310 -15 c0 -10
11 -20 25 -23 14 -4 25 -10 25 -15 0 -5 -11 -12 -25 -15 -20 -5 -25 -13 -25
-36 0 -35 -10 -38 -35 -10 -13 14 -25 17 -47 13 -28 -6 -29 -5 -16 21 9 21 9
32 0 47 -18 28 -15 32 17 26 21 -5 34 -1 47 14 19 21 34 11 34 -22z m-1020
-214 l25 -13 -28 -13 c-20 -9 -27 -19 -27 -41 0 -33 -10 -35 -35 -8 -14 16
-26 19 -47 15 -31 -7 -34 -4 -16 25 10 16 10 24 0 40 -19 31 -15 36 22 32 28
-3 37 0 47 19 l12 24 12 -34 c6 -18 22 -39 35 -46z m270 39 c0 -18 8 -27 28
-35 26 -10 26 -11 8 -25 -11 -8 -23 -14 -28 -14 -4 0 -8 -13 -8 -30 0 -35 -14
-39 -31 -9 -9 17 -17 20 -45 14 -37 -6 -41 0 -19 29 12 16 12 21 0 40 -21 29
-19 32 19 28 27 -3 38 1 47 16 16 25 29 19 29 -14z m334 -38 l30 -12 -32 -13
c-26 -11 -32 -19 -32 -44 l0 -30 -24 22 c-20 19 -31 22 -57 16 l-33 -7 18 26
c16 25 16 29 2 51 -21 32 -21 32 17 27 24 -3 38 2 52 18 l20 22 5 -32 c4 -24
13 -35 34 -44z m299 2 l31 -15 -29 -14 c-20 -9 -32 -24 -35 -43 l-5 -28 -19
21 c-16 17 -26 20 -54 15 l-34 -7 17 27 c16 24 16 28 1 51 -21 32 -21 32 17
27 24 -3 38 2 52 18 l20 22 3 -29 c2 -22 11 -34 35 -45z m305 -2 l27 -14 -26
-12 c-18 -8 -29 -23 -33 -43 l-6 -30 -24 22 c-17 16 -30 20 -50 15 -30 -7 -31
-5 -14 31 9 19 9 28 0 37 -22 22 -13 35 19 30 24 -3 34 1 47 19 l16 23 8 -32
c5 -19 19 -37 36 -46z m-1098 -145 c0 -24 6 -31 33 -41 l32 -12 -32 -14 c-27
-12 -33 -20 -33 -46 l0 -31 -25 23 c-18 17 -31 21 -55 17 -33 -7 -36 -1 -15
27 13 17 13 22 0 42 -21 32 -20 33 19 27 28 -4 37 -1 48 16 18 29 28 26 28 -8z
m335 -40 l29 -14 -32 -15 c-25 -13 -32 -22 -32 -46 l0 -29 -25 23 c-19 17 -31
21 -55 16 l-31 -6 17 29 c15 26 15 30 -1 54 l-17 26 34 -5 c26 -5 38 -1 53 16
l20 22 5 -28 c3 -19 15 -34 35 -43z m298 3 l31 -16 -27 -15 c-18 -9 -30 -25
-34 -45 l-6 -31 -19 23 c-14 18 -25 21 -48 16 -34 -6 -34 -6 -19 27 9 20 8 30
-7 52 l-17 27 34 -7 c28 -5 38 -2 54 15 l20 22 3 -26 c2 -17 14 -32 35 -42z
m277 25 c0 -9 12 -21 27 -28 l28 -13 -28 -14 c-18 -10 -27 -23 -27 -39 0 -29
-12 -32 -31 -9 -9 11 -23 14 -46 11 -36 -6 -40 -1 -19 29 12 17 12 22 0 39
-21 28 -17 35 14 29 20 -4 33 0 46 15 21 23 36 14 36 -20z m-1020 -204 l25
-13 -28 -13 c-20 -9 -27 -19 -27 -41 0 -33 -10 -35 -35 -8 -14 16 -26 19 -47
15 -31 -7 -34 -4 -16 25 10 16 10 24 0 40 -19 31 -15 36 22 32 28 -3 37 0 47
19 l12 24 12 -34 c6 -18 22 -39 35 -46z m270 39 c0 -18 8 -27 28 -35 26 -10
26 -11 8 -25 -11 -8 -23 -14 -28 -14 -4 0 -8 -13 -8 -30 0 -35 -10 -38 -28 -9
-11 17 -20 20 -48 15 -37 -7 -41 -1 -19 28 12 16 12 21 0 40 -21 29 -19 32 19
28 27 -3 38 1 47 16 16 25 29 19 29 -14z m334 -38 l30 -12 -32 -13 c-26 -11
-32 -19 -32 -44 l0 -30 -23 21 c-19 18 -30 21 -58 15 l-34 -6 18 27 c17 25 17
29 3 51 -21 32 -21 32 17 27 24 -3 38 2 52 18 l20 22 5 -32 c4 -24 13 -35 34
-44z m299 2 l31 -15 -29 -14 c-20 -9 -32 -24 -35 -43 l-5 -28 -19 21 c-16 17
-26 20 -54 15 l-34 -7 17 27 c16 24 16 28 1 51 -21 32 -21 32 17 27 24 -3 38
2 52 18 l20 22 3 -29 c2 -22 11 -34 35 -45z m305 -2 l27 -14 -26 -10 c-18 -7
-28 -20 -33 -43 l-6 -32 -24 22 c-17 16 -30 20 -50 15 -30 -7 -31 -5 -14 31 9
19 9 28 0 37 -22 22 -13 35 19 30 24 -3 34 1 47 19 l16 23 8 -32 c5 -19 19
-37 36 -46z m-1098 -145 c0 -24 6 -31 33 -41 l32 -12 -32 -14 c-27 -12 -33
-20 -33 -46 l0 -31 -25 23 c-18 17 -31 21 -55 17 -33 -7 -36 -1 -15 27 13 17
13 22 0 42 -21 32 -20 33 19 27 28 -4 37 -1 48 16 18 29 28 26 28 -8z m335
-40 l29 -14 -32 -15 c-25 -13 -32 -22 -32 -46 l0 -29 -24 22 c-20 18 -31 22
-56 16 l-32 -7 17 29 c17 29 17 31 0 57 l-18 28 34 -7 c28 -5 38 -2 54 15 l20
22 5 -28 c3 -19 15 -34 35 -43z m299 0 l29 -14 -27 -14 c-17 -9 -29 -25 -33
-45 l-6 -31 -19 23 c-14 18 -25 21 -48 16 -34 -6 -34 -6 -19 27 9 20 8 30 -7
52 l-17 27 34 -7 c28 -5 38 -2 54 15 l20 22 5 -28 c3 -19 15 -34 34 -43z m305
-1 l26 -12 -28 -14 c-18 -10 -27 -23 -27 -39 0 -29 -12 -32 -31 -9 -9 11 -23
14 -46 11 -36 -6 -40 -1 -19 29 12 17 12 22 0 39 -21 28 -17 35 14 29 20 -4
33 0 47 16 l20 22 9 -30 c5 -17 19 -35 35 -42z m-1053 -186 c31 -8 30 -22 -1
-30 -19 -5 -25 -13 -25 -35 0 -34 -10 -37 -34 -10 -14 15 -23 17 -48 11 -26
-8 -29 -7 -22 8 10 22 9 52 -1 76 -7 16 -5 17 22 12 23 -5 34 -2 49 15 l19 21
9 -31 c6 -20 17 -33 32 -37z m274 37 c0 -22 6 -30 25 -35 14 -4 25 -10 25 -15
0 -4 -11 -13 -25 -19 -17 -8 -25 -20 -25 -37 0 -30 -11 -32 -34 -6 -14 15 -24
17 -47 11 -33 -10 -36 -4 -14 26 12 19 12 24 0 40 -22 29 -18 37 14 31 21 -4
34 -1 46 13 25 28 35 25 35 -9z m300 3 c0 -19 7 -28 30 -37 17 -6 30 -14 30
-17 0 -3 -13 -11 -30 -17 -25 -9 -30 -17 -30 -44 l0 -33 -27 26 c-23 20 -33
24 -55 18 -32 -10 -33 -8 -12 25 14 22 14 26 -3 51 l-18 27 34 -6 c27 -6 37
-3 48 13 19 27 33 25 33 -6z m300 0 c0 -19 7 -28 30 -37 17 -6 30 -14 30 -17
0 -3 -13 -11 -30 -17 -23 -9 -30 -18 -30 -37 0 -31 -11 -33 -27 -7 -10 16 -18
18 -43 11 -33 -9 -37 -2 -19 31 8 16 7 26 -6 46 l-17 26 36 -7 c29 -6 38 -3
48 14 17 27 28 25 28 -6z m330 -39 c25 -8 26 -22 1 -30 -11 -3 -21 -19 -25
-37 l-6 -31 -23 20 c-17 16 -28 18 -49 13 -30 -9 -35 -1 -16 29 9 15 8 24 -6
46 l-18 28 34 -7 c28 -5 38 -2 54 15 l19 21 7 -31 c5 -16 17 -33 28 -36z
m-982 -930 c1 -401 0 -743 -3 -760 -5 -29 -24 -46 -177 -158 l-38 -29 0 841 0
842 108 -3 107 -3 3 -730z m422 199 l0 -536 -64 -77 c-35 -42 -83 -94 -105
-116 l-41 -39 0 652 0 652 105 0 105 0 0 -536z m438 381 c2 -99 -1 -164 -9
-190 -7 -22 -13 -45 -15 -51 -5 -27 -169 -342 -187 -360 -4 -4 -7 165 -7 375
l0 382 108 -3 107 -3 3 -150z"/>
</g>
</svg>
